<svg width="189" height="189" viewBox="0 0 189 189" fill="none" xmlns="http://www.w3.org/2000/svg">
<circle cx="94.5" cy="94.5" r="84.5" fill="white"/>
<g clip-path="url(#clip0_721_166)">
<path d="M94.7007 28C120.334 28 143.98 42.8721 154.928 65.8928C155.271 66.6158 155.605 67.3594 155.938 68.1236C156.094 68.4954 155.917 68.9395 155.532 69.0944C149.495 71.5215 143.001 72.7918 136.455 72.7918C131.251 72.7918 126.079 71.9966 121.115 70.4474C115.838 68.7639 110.957 66.0787 106.471 62.8771C101.986 59.6755 98.1664 55.6683 93.4414 52.8384C85.6879 48.2425 76.7897 45.8155 67.7144 45.8155C60.1899 45.8155 53.0505 47.468 46.6291 50.4217C45.9006 50.7522 45.245 49.864 45.7862 49.2753C55.3193 39.0198 67.8914 31.9762 81.6707 29.2703C85.9377 28.4234 90.3192 28 94.7007 28Z" fill="#0183FF"/>
<path d="M136.132 118.327C142.335 118.327 148.538 119.401 154.324 121.632C154.678 121.766 154.845 122.19 154.678 122.52C145.728 141.079 127.578 155.001 107.21 158.874C87.7798 162.572 66.809 157.026 51.6975 144.384C51.1563 143.93 51.6455 143.073 52.322 143.3C60.523 146.057 69.5669 146.192 77.9865 144.126C87.8839 141.689 95.3355 136.349 103.287 130.38C110.686 124.823 119.47 120.186 128.743 118.854C131.189 118.503 133.666 118.338 136.132 118.338" fill="#0183FF"/>
<path d="M96.3763 121.963C88.8622 130.163 77.8616 135.162 65.6954 134.666C45.7446 133.86 29.3009 117.904 28.0729 98.1363C26.6783 75.4461 44.7871 56.6391 67.3294 56.6391C78.8399 56.6391 89.1952 61.5345 96.3867 69.363C97.0008 70.0343 96.8342 71.1187 96.0329 71.5628C87.5613 76.3033 81.8268 85.3298 81.8268 95.6679C81.8268 106.006 87.5405 115.022 96.0121 119.763C96.803 120.207 96.9695 121.291 96.3659 121.963H96.3763Z" fill="#0F1F33"/>
</g>
<defs>
<clipPath id="clip0_721_166">
<rect width="128" height="132" fill="white" transform="translate(28 28)"/>
</clipPath>
</defs>
</svg>
