<svg width="246" height="24" viewBox="0 0 246 24" fill="none" xmlns="http://www.w3.org/2000/svg">
<g clip-path="url(#clip0_76_32)">
<path d="M174.555 4.22729V19.5H170.909V4.22729H174.555Z" fill="black"/>
<path d="M161.833 19.6939C161.102 19.6939 160.453 19.5721 159.886 19.3285C159.325 19.08 158.88 18.7071 158.552 18.2099C158.228 17.7078 158.067 17.0789 158.067 16.3232C158.067 15.6868 158.179 15.1499 158.402 14.7124C158.626 14.2749 158.934 13.9194 159.327 13.646C159.72 13.3726 160.172 13.1662 160.684 13.027C161.197 12.8829 161.743 12.7859 162.325 12.7362C162.976 12.6765 163.501 12.6144 163.899 12.5498C164.296 12.4802 164.585 12.3832 164.764 12.2589C164.948 12.1297 165.04 11.9482 165.04 11.7145V11.6773C165.04 11.2944 164.908 10.9986 164.644 10.7898C164.381 10.581 164.025 10.4766 163.578 10.4766C163.096 10.4766 162.708 10.581 162.415 10.7898C162.121 10.9986 161.935 11.287 161.855 11.6549L158.492 11.5356C158.591 10.8395 158.847 10.2181 159.26 9.67122C159.678 9.11937 160.249 8.68684 160.975 8.37363C161.706 8.05545 162.584 7.89636 163.608 7.89636C164.339 7.89636 165.012 7.98336 165.629 8.15737C166.245 8.3264 166.782 8.57498 167.239 8.90311C167.697 9.22626 168.05 9.62399 168.298 10.0963C168.552 10.5686 168.679 11.108 168.679 11.7145V19.5001H165.248V17.9042H165.159C164.955 18.292 164.694 18.6201 164.376 18.8885C164.063 19.157 163.692 19.3584 163.265 19.4926C162.842 19.6268 162.365 19.6939 161.833 19.6939ZM162.959 17.3076C163.352 17.3076 163.705 17.228 164.018 17.0689C164.336 16.9099 164.59 16.6911 164.779 16.4127C164.967 16.1293 165.062 15.8012 165.062 15.4283V14.3395C164.958 14.3942 164.831 14.4439 164.682 14.4887C164.537 14.5334 164.378 14.5757 164.204 14.6155C164.03 14.6552 163.851 14.69 163.667 14.7199C163.483 14.7497 163.307 14.777 163.138 14.8019C162.795 14.8566 162.502 14.9411 162.258 15.0555C162.019 15.1698 161.835 15.3189 161.706 15.5029C161.582 15.6819 161.52 15.8957 161.52 16.1442C161.52 16.5221 161.654 16.8104 161.922 17.0093C162.196 17.2082 162.541 17.3076 162.959 17.3076Z" fill="black"/>
<path d="M150.47 24.0341C149.381 24.0341 148.449 23.8825 147.674 23.5792C146.898 23.276 146.289 22.8609 145.847 22.3339C145.404 21.8069 145.138 21.2103 145.049 20.5441L148.501 20.3502C148.566 20.5839 148.685 20.7877 148.859 20.9617C149.038 21.1357 149.269 21.2699 149.553 21.3644C149.841 21.4589 150.179 21.5061 150.567 21.5061C151.179 21.5061 151.683 21.3569 152.081 21.0586C152.484 20.7653 152.685 20.2508 152.685 19.515V17.5015H152.558C152.414 17.8545 152.195 18.1702 151.902 18.4486C151.609 18.727 151.243 18.9457 150.806 19.1048C150.373 19.2639 149.876 19.3435 149.314 19.3435C148.479 19.3435 147.713 19.1496 147.017 18.7618C146.326 18.369 145.772 17.7625 145.354 16.9422C144.942 16.1169 144.735 15.0555 144.735 13.7579C144.735 12.4205 144.949 11.3193 145.377 10.4542C145.804 9.58422 146.364 8.9404 147.055 8.52278C147.751 8.10517 148.499 7.89636 149.299 7.89636C149.901 7.89636 150.415 8.00077 150.843 8.20957C151.275 8.41341 151.631 8.6769 151.909 9.00006C152.188 9.32321 152.399 9.65879 152.543 10.0068H152.648V8.04551H156.279V19.5448C156.279 20.5143 156.036 21.3321 155.549 21.9983C155.061 22.6645 154.38 23.1691 153.505 23.5121C152.63 23.8601 151.619 24.0341 150.47 24.0341ZM150.582 16.6886C151.024 16.6886 151.402 16.5718 151.715 16.3381C152.029 16.1045 152.27 15.7689 152.439 15.3314C152.608 14.8939 152.692 14.3694 152.692 13.7579C152.692 13.1364 152.608 12.602 152.439 12.1545C152.275 11.7021 152.034 11.3541 151.715 11.1105C151.402 10.8669 151.024 10.7451 150.582 10.7451C150.13 10.7451 149.747 10.8694 149.434 11.118C149.12 11.3665 148.882 11.717 148.718 12.1694C148.559 12.6169 148.479 13.1464 148.479 13.7579C148.479 14.3694 148.561 14.8939 148.725 15.3314C148.889 15.7689 149.125 16.1045 149.434 16.3381C149.747 16.5718 150.13 16.6886 150.582 16.6886Z" fill="black"/>
<path d="M137.831 19.7163C136.633 19.7163 135.599 19.4802 134.729 19.0079C133.864 18.5306 133.198 17.852 132.731 16.972C132.268 16.0871 132.037 15.0356 132.037 13.8175C132.037 12.6343 132.271 11.6002 132.738 10.7153C133.205 9.82534 133.864 9.13429 134.714 8.6421C135.564 8.14494 136.566 7.89636 137.72 7.89636C138.535 7.89636 139.281 8.02314 139.957 8.27669C140.633 8.53024 141.217 8.90559 141.709 9.40275C142.202 9.89991 142.584 10.5139 142.858 11.2447C143.131 11.9706 143.268 12.8033 143.268 13.743V14.6528H133.312V12.5349H139.875C139.87 12.1471 139.778 11.8015 139.599 11.4983C139.42 11.195 139.174 10.9589 138.861 10.7898C138.552 10.6158 138.197 10.5288 137.794 10.5288C137.387 10.5288 137.021 10.6208 136.698 10.8047C136.375 10.9837 136.119 11.2298 135.93 11.543C135.741 11.8513 135.642 12.2018 135.632 12.5945V14.7497C135.632 15.217 135.724 15.6272 135.907 15.9802C136.091 16.3282 136.352 16.5991 136.691 16.793C137.029 16.9869 137.431 17.0839 137.899 17.0839C138.222 17.0839 138.515 17.0391 138.779 16.9496C139.042 16.8601 139.268 16.7284 139.457 16.5544C139.646 16.3804 139.788 16.1666 139.882 15.9131L143.231 16.01C143.091 16.7607 142.786 17.4145 142.313 17.9713C141.846 18.5231 141.232 18.9532 140.471 19.2614C139.711 19.5647 138.831 19.7163 137.831 19.7163Z" fill="black"/>
<path d="M120.521 19.5V4.22729H124.212V16.5022H130.566V19.5H120.521Z" fill="black"/>
<path d="M108.354 19.7163C107.151 19.7163 106.117 19.4702 105.252 18.978C104.392 18.4809 103.728 17.7898 103.261 16.9049C102.799 16.015 102.567 14.9834 102.567 13.8101C102.567 12.6318 102.799 11.6002 103.261 10.7153C103.728 9.82534 104.392 9.13429 105.252 8.6421C106.117 8.14494 107.151 7.89636 108.354 7.89636C109.557 7.89636 110.589 8.14494 111.449 8.6421C112.314 9.13429 112.978 9.82534 113.44 10.7153C113.908 11.6002 114.141 12.6318 114.141 13.8101C114.141 14.9834 113.908 16.015 113.44 16.9049C112.978 17.7898 112.314 18.4809 111.449 18.978C110.589 19.4702 109.557 19.7163 108.354 19.7163ZM108.377 16.9645C108.814 16.9645 109.185 16.8303 109.488 16.5618C109.791 16.2934 110.022 15.9205 110.181 15.4432C110.345 14.966 110.427 14.4141 110.427 13.7877C110.427 13.1513 110.345 12.5945 110.181 12.1172C110.022 11.64 109.791 11.2671 109.488 10.9986C109.185 10.7302 108.814 10.5959 108.377 10.5959C107.924 10.5959 107.541 10.7302 107.228 10.9986C106.92 11.2671 106.684 11.64 106.52 12.1172C106.361 12.5945 106.281 13.1513 106.281 13.7877C106.281 14.4141 106.361 14.966 106.52 15.4432C106.684 15.9205 106.92 16.2934 107.228 16.5618C107.541 16.8303 107.924 16.9645 108.377 16.9645Z" fill="black"/>
<path d="M93.7585 19.6641C92.9134 19.6641 92.1452 19.4453 91.4542 19.0078C90.7631 18.5703 90.2113 17.9141 89.7986 17.0391C89.386 16.1641 89.1797 15.0778 89.1797 13.7802C89.1797 12.4329 89.3935 11.3242 89.821 10.4542C90.2486 9.58418 90.8079 8.94036 91.4989 8.52275C92.195 8.10514 92.9432 7.89633 93.7436 7.89633C94.3452 7.89633 94.8597 8.00073 95.2873 8.20954C95.7148 8.41338 96.0678 8.67687 96.3462 9.00002C96.6246 9.32318 96.8359 9.65876 96.9801 10.0068H97.0547V4.22729H100.701V19.5H97.092V17.6431H96.9801C96.826 17.9961 96.6072 18.3267 96.3239 18.635C96.0405 18.9432 95.685 19.1918 95.2575 19.3807C94.8349 19.5696 94.3352 19.6641 93.7585 19.6641ZM95.0263 16.8228C95.4687 16.8228 95.8466 16.6985 96.1598 16.45C96.473 16.1964 96.7141 15.8409 96.8832 15.3835C97.0522 14.9262 97.1367 14.3892 97.1367 13.7727C97.1367 13.1463 97.0522 12.6069 96.8832 12.1545C96.7191 11.7021 96.478 11.3541 96.1598 11.1105C95.8466 10.8669 95.4687 10.7451 95.0263 10.7451C94.5739 10.7451 94.191 10.8693 93.8778 11.1179C93.5646 11.3665 93.326 11.717 93.1619 12.1694C93.0028 12.6218 92.9233 13.1563 92.9233 13.7727C92.9233 14.3892 93.0053 14.9262 93.1694 15.3835C93.3335 15.8409 93.5696 16.1964 93.8778 16.45C94.191 16.6985 94.5739 16.8228 95.0263 16.8228Z" fill="black"/>
<path d="M83.6068 19.5V8.0455H87.2534V19.5H83.6068ZM85.4338 6.71063C84.9217 6.71063 84.4818 6.54159 84.1139 6.20353C83.746 5.86048 83.562 5.44784 83.562 4.9656C83.562 4.48833 83.746 4.08066 84.1139 3.74259C84.4818 3.39955 84.9217 3.22803 85.4338 3.22803C85.9509 3.22803 86.3909 3.39955 86.7538 3.74259C87.1217 4.08066 87.3056 4.48833 87.3056 4.9656C87.3056 5.44784 87.1217 5.86048 86.7538 6.20353C86.3909 6.54159 85.9509 6.71063 85.4338 6.71063Z" fill="black"/>
<path d="M81.8528 8.04544V10.7301H74.4849V8.04544H81.8528ZM76.0211 19.5V7.46377C76.0211 6.57883 76.1876 5.84552 76.5207 5.26384C76.8538 4.67719 77.3162 4.23969 77.9078 3.95134C78.4994 3.65801 79.183 3.51135 79.9586 3.51135C80.4657 3.51135 80.943 3.55113 81.3904 3.63067C81.8428 3.70525 82.1784 3.77236 82.3972 3.83202L81.8155 6.50177C81.6812 6.45702 81.5172 6.41973 81.3233 6.3899C81.1344 6.36007 80.9554 6.34516 80.7864 6.34516C80.3588 6.34516 80.0655 6.43962 79.9064 6.62854C79.7473 6.81746 79.6677 7.07598 79.6677 7.40411V19.5H76.0211Z" fill="black"/>
<path d="M65.6794 12.9674V19.5001H62.0327V8.04551H65.5004V10.1485H65.6272C65.8807 9.4475 66.3133 8.89814 66.9248 8.50041C67.5363 8.09771 68.2646 7.89636 69.1098 7.89636C69.9152 7.89636 70.6137 8.07782 71.2053 8.44075C71.8019 8.7987 72.2642 9.30084 72.5924 9.94714C72.9255 10.5885 73.0895 11.3392 73.0846 12.1993V19.5001H69.4379V12.9152C69.4429 12.2788 69.2813 11.7817 68.9532 11.4237C68.63 11.0658 68.1801 10.8868 67.6034 10.8868C67.2206 10.8868 66.8825 10.9713 66.5892 11.1403C66.3008 11.3044 66.0771 11.5405 65.918 11.8488C65.7639 12.157 65.6843 12.5299 65.6794 12.9674Z" fill="black"/>
<path d="M54.3778 19.7163C53.1746 19.7163 52.1405 19.4702 51.2755 18.978C50.4154 18.4809 49.7517 17.7898 49.2844 16.9049C48.822 16.015 48.5908 14.9834 48.5908 13.8101C48.5908 12.6318 48.822 11.6002 49.2844 10.7153C49.7517 9.82534 50.4154 9.13429 51.2755 8.6421C52.1405 8.14494 53.1746 7.89636 54.3778 7.89636C55.5809 7.89636 56.6125 8.14494 57.4726 8.6421C58.3376 9.13429 59.0013 9.82534 59.4637 10.7153C59.931 11.6002 60.1647 12.6318 60.1647 13.8101C60.1647 14.9834 59.931 16.015 59.4637 16.9049C59.0013 17.7898 58.3376 18.4809 57.4726 18.978C56.6125 19.4702 55.5809 19.7163 54.3778 19.7163ZM54.4001 16.9645C54.8376 16.9645 55.208 16.8303 55.5113 16.5618C55.8145 16.2934 56.0457 15.9205 56.2048 15.4432C56.3689 14.966 56.4509 14.4141 56.4509 13.7877C56.4509 13.1513 56.3689 12.5945 56.2048 12.1172C56.0457 11.64 55.8145 11.2671 55.5113 10.9986C55.208 10.7302 54.8376 10.5959 54.4001 10.5959C53.9477 10.5959 53.5649 10.7302 53.2517 10.9986C52.9434 11.2671 52.7073 11.64 52.5432 12.1172C52.3841 12.5945 52.3046 13.1513 52.3046 13.7877C52.3046 14.4141 52.3841 14.966 52.5432 15.4432C52.7073 15.9205 52.9434 16.2934 53.2517 16.5618C53.5649 16.8303 53.9477 16.9645 54.4001 16.9645Z" fill="black"/>
<path d="M46.9185 9.76074H43.1898C43.14 9.37793 43.0381 9.0324 42.884 8.72416C42.7299 8.41593 42.5261 8.15243 42.2725 7.93368C42.019 7.71493 41.7182 7.54838 41.3702 7.43404C41.0271 7.31472 40.6468 7.25506 40.2292 7.25506C39.4884 7.25506 38.8496 7.43652 38.3126 7.79945C37.7807 8.16238 37.3705 8.68688 37.0822 9.37296C36.7988 10.059 36.6571 10.8893 36.6571 11.8637C36.6571 12.8779 36.8013 13.7281 37.0896 14.4142C37.3829 15.0953 37.7931 15.6098 38.3201 15.9578C38.8521 16.3009 39.481 16.4724 40.2068 16.4724C40.6145 16.4724 40.9849 16.4202 41.318 16.3158C41.656 16.2114 41.9518 16.0597 42.2054 15.8609C42.4639 15.6571 42.6752 15.411 42.8393 15.1226C43.0083 14.8293 43.1251 14.4987 43.1898 14.1308L46.9185 14.1531C46.8538 14.8293 46.6574 15.4955 46.3293 16.1517C46.0062 16.808 45.5612 17.4071 44.9945 17.949C44.4277 18.4859 43.7366 18.9134 42.9213 19.2316C42.1109 19.5498 41.1812 19.7089 40.1322 19.7089C38.7501 19.7089 37.5122 19.4056 36.4185 18.7991C35.3297 18.1876 34.4696 17.2977 33.8382 16.1294C33.2068 14.961 32.8911 13.5392 32.8911 11.8637C32.8911 10.1833 33.2118 8.75897 33.8531 7.59064C34.4945 6.42232 35.362 5.53489 36.4557 4.92836C37.5495 4.32182 38.775 4.01855 40.1322 4.01855C41.057 4.01855 41.9121 4.14782 42.6976 4.40634C43.4831 4.65989 44.1741 5.03276 44.7707 5.52495C45.3673 6.01216 45.8521 6.61124 46.2249 7.32218C46.5978 8.03311 46.829 8.84597 46.9185 9.76074Z" fill="black"/>
<path d="M233.037 10.842L231.016 11.2C230.931 10.9415 230.797 10.6954 230.613 10.4617C230.434 10.228 230.191 10.0366 229.882 9.88748C229.574 9.73834 229.189 9.66376 228.726 9.66376C228.095 9.66376 227.568 9.80545 227.146 10.0888C226.723 10.3672 226.512 10.7277 226.512 11.1702C226.512 11.553 226.653 11.8612 226.937 12.0949C227.22 12.3285 227.677 12.5199 228.309 12.6691L230.128 13.0867C231.182 13.3303 231.968 13.7057 232.485 14.2128C233.002 14.7199 233.261 15.3786 233.261 16.189C233.261 16.8751 233.062 17.4866 232.664 18.0235C232.271 18.5555 231.722 18.9731 231.016 19.2763C230.315 19.5796 229.502 19.7312 228.577 19.7312C227.295 19.7312 226.248 19.4578 225.438 18.9109C224.627 18.3591 224.13 17.5761 223.946 16.5618L226.101 16.2337C226.236 16.7955 226.512 17.2206 226.929 17.5089C227.347 17.7923 227.891 17.934 228.562 17.934C229.293 17.934 229.877 17.7824 230.315 17.4791C230.752 17.1709 230.971 16.7955 230.971 16.353C230.971 15.9951 230.837 15.6943 230.568 15.4507C230.305 15.2071 229.9 15.0231 229.353 14.8988L227.414 14.4738C226.345 14.2302 225.555 13.8424 225.043 13.3104C224.535 12.7785 224.282 12.1048 224.282 11.2895C224.282 10.6133 224.471 10.0217 224.849 9.51461C225.226 9.00751 225.748 8.61227 226.415 8.32889C227.081 8.04054 227.844 7.89636 228.704 7.89636C229.942 7.89636 230.916 8.16483 231.627 8.70176C232.338 9.23372 232.808 9.94714 233.037 10.842Z" fill="#747480"/>
<path d="M217.363 19.7312C216.255 19.7312 215.3 19.4802 214.5 18.978C213.704 18.4709 213.093 17.7724 212.665 16.8825C212.238 15.9926 212.024 14.9734 212.024 13.825C212.024 12.6616 212.243 11.635 212.68 10.7451C213.118 9.8502 213.734 9.15169 214.53 8.64956C215.325 8.14743 216.262 7.89636 217.341 7.89636C218.211 7.89636 218.987 8.05794 219.668 8.38109C220.349 8.69927 220.898 9.14672 221.316 9.72342C221.738 10.3001 221.989 10.9738 222.069 11.7444H219.899C219.78 11.2074 219.506 10.7451 219.079 10.3573C218.656 9.96952 218.089 9.77562 217.378 9.77562C216.757 9.77562 216.212 9.93969 215.745 10.2678C215.283 10.591 214.922 11.0533 214.664 11.6549C214.405 12.2515 214.276 12.9574 214.276 13.7728C214.276 14.608 214.403 15.3289 214.656 15.9354C214.91 16.542 215.268 17.0118 215.73 17.3449C216.198 17.678 216.747 17.8445 217.378 17.8445C217.801 17.8445 218.184 17.7675 218.527 17.6133C218.875 17.4542 219.166 17.228 219.399 16.9347C219.638 16.6414 219.804 16.2884 219.899 15.8758H222.069C221.989 16.6165 221.748 17.2778 221.346 17.8594C220.943 18.4411 220.404 18.8985 219.727 19.2316C219.056 19.5647 218.268 19.7312 217.363 19.7312Z" fill="#747480"/>
<path d="M204.71 19.7312C203.636 19.7312 202.699 19.4851 201.899 18.993C201.098 18.5008 200.477 17.8122 200.034 16.9273C199.592 16.0423 199.371 15.0082 199.371 13.825C199.371 12.6368 199.592 11.5977 200.034 10.7078C200.477 9.81788 201.098 9.12683 201.899 8.63464C202.699 8.14246 203.636 7.89636 204.71 7.89636C205.784 7.89636 206.721 8.14246 207.522 8.63464C208.322 9.12683 208.943 9.81788 209.386 10.7078C209.828 11.5977 210.05 12.6368 210.05 13.825C210.05 15.0082 209.828 16.0423 209.386 16.9273C208.943 17.8122 208.322 18.5008 207.522 18.993C206.721 19.4851 205.784 19.7312 204.71 19.7312ZM204.718 17.8594C205.414 17.8594 205.99 17.6755 206.448 17.3076C206.905 16.9397 207.243 16.45 207.462 15.8385C207.686 15.227 207.797 14.5533 207.797 13.8175C207.797 13.0867 207.686 12.4155 207.462 11.804C207.243 11.1876 206.905 10.6929 206.448 10.32C205.99 9.94714 205.414 9.76071 204.718 9.76071C204.017 9.76071 203.435 9.94714 202.973 10.32C202.515 10.6929 202.175 11.1876 201.951 11.804C201.732 12.4155 201.623 13.0867 201.623 13.8175C201.623 14.5533 201.732 15.227 201.951 15.8385C202.175 16.45 202.515 16.9397 202.973 17.3076C203.435 17.6755 204.017 17.8594 204.718 17.8594Z" fill="#747480"/>
<path d="M189.853 19.5H184.909V4.22729H190.01C191.506 4.22729 192.791 4.53305 193.865 5.14455C194.939 5.75109 195.762 6.6236 196.333 7.7621C196.91 8.89562 197.198 10.2553 197.198 11.8413C197.198 13.4322 196.908 14.7994 196.326 15.9429C195.749 17.0863 194.914 17.9663 193.82 18.5828C192.727 19.1943 191.404 19.5 189.853 19.5ZM187.213 17.4865H189.726C190.89 17.4865 191.856 17.2678 192.627 16.8303C193.398 16.3878 193.974 15.749 194.357 14.9137C194.74 14.0735 194.931 13.0494 194.931 11.8413C194.931 10.6431 194.74 9.62644 194.357 8.79122C193.979 7.95599 193.415 7.32211 192.664 6.88958C191.914 6.45705 190.981 6.24079 189.868 6.24079H187.213V17.4865Z" fill="#747480"/>
<g clip-path="url(#clip1_76_32)">
<path d="M11.9627 0C16.56 0 20.8008 2.70401 22.7644 6.8896C22.826 7.02105 22.8857 7.15625 22.9454 7.2952C22.9734 7.3628 22.9417 7.44355 22.8726 7.47172C21.79 7.913 20.6253 8.14396 19.4513 8.14396C18.518 8.14396 17.5903 7.99937 16.7 7.71771C15.7537 7.41163 14.8783 6.9234 14.0738 6.34129C13.2693 5.75917 12.5843 5.03059 11.7369 4.51608C10.3463 3.68046 8.75043 3.23918 7.12281 3.23918C5.7733 3.23918 4.49286 3.53963 3.34121 4.07668C3.21055 4.13677 3.09296 3.97528 3.19002 3.86824C4.89977 2.0036 7.15454 0.722948 9.62583 0.230968C10.3911 0.0769893 11.1769 0 11.9627 0Z" fill="#0183FF"/>
<path d="M19.3932 16.4231C20.5057 16.4231 21.6182 16.6184 22.6559 17.024C22.7194 17.0484 22.7493 17.1254 22.7194 17.1855C21.1142 20.5599 17.859 23.0911 14.2061 23.7953C10.7213 24.4675 6.96025 23.4592 4.25004 21.1608C4.15298 21.0781 4.24071 20.9223 4.36203 20.9636C5.83286 21.465 7.45488 21.4894 8.96491 21.1138C10.74 20.6707 12.0764 19.6998 13.5025 18.6145C14.8296 17.6042 16.4049 16.7611 18.068 16.5189C18.5066 16.455 18.9509 16.425 19.3932 16.425" fill="#0183FF"/>
<path d="M12.2631 17.0842C10.9155 18.5751 8.94256 19.484 6.76058 19.3938C3.18243 19.2474 0.233302 16.3462 0.0130512 12.7521C-0.237065 8.62661 3.01071 5.20715 7.05362 5.20715C9.11801 5.20715 10.9752 6.09722 12.265 7.52059C12.3751 7.64264 12.3453 7.83981 12.2015 7.92056C10.6822 8.78246 9.65371 10.4236 9.65371 12.3033C9.65371 14.183 10.6784 15.8223 12.1978 16.6842C12.3397 16.7649 12.3695 16.9621 12.2613 17.0842H12.2631Z" fill="#0F1F33"/>
</g>
</g>
<defs>
<clipPath id="clip0_76_32">
<rect width="246" height="24" fill="white"/>
</clipPath>
<clipPath id="clip1_76_32">
<rect width="22.9565" height="24" fill="white"/>
</clipPath>
</defs>
</svg>
